<svg xmlns="http://www.w3.org/2000/svg" version="1.1" height="189.39257354736327" width="256.21002197265625">
    <defs id="SvgjsDefs3047"></defs>
    <g id="SvgjsG3048" rel="mainfill" name="main_text" transform="translate(-2.240000009536743,-80.26891021728517)"
       fill="#5a4ade">
        <path d="M25.44 195.76L27.92 203.58L31.40 203.58L31.09 191.20C21.58 191.20 12.06 191.20 2.47 191.20L2.24 203.58L5.72 203.58L8.04 195.76L12.99 195.76C12.99 208.99 12.99 222.14 12.99 235.28L10.05 237.53L10.05 240C14.07 240 19.49 240 23.51 240L23.51 237.53L20.65 235.28C20.65 222.14 20.65 208.99 20.65 195.76ZM63.49 240L63.49 229.10L60.24 229.10L57.77 235.59L46.25 235.59L46.25 235.21C47.48 234.82 47.79 234.20 47.79 233.04L47.79 217.96L54.13 217.96L56.07 221.52L58.23 221.52L58.23 209.76L56.07 209.76L54.13 213.55L47.79 213.55L47.79 195.53L56.92 195.53L58.93 202.11L62.56 202.11L62.56 191.20L37.66 191.20L37.66 193.06L40.21 194.99L40.21 235.75L37.20 237.91L37.20 240ZM73.39 236.13L70.37 237.91L70.37 240L83.75 240L83.75 237.91L80.74 236.13L80.74 217.19L91.56 217.19L91.56 236.13L88.70 237.91L88.70 240L101.93 240L101.93 237.91L98.99 236.13L98.99 195.22L101.46 193.29L101.46 191.20L89.09 191.20L89.09 193.29L91.56 195.22L91.56 213.01L80.74 213.01L80.74 195.22L83.21 193.29L83.21 191.20L70.92 191.20L70.92 193.29L73.39 195.22ZM116.70 205.59L116.31 196.77L117.32 196.77C119.79 210.54 121.88 223.60 124.05 237.45C124.28 238.84 124.97 239.46 126.52 239.46L132.63 239.46L139.98 196.23L140.21 196.23L140.21 203.27C140.21 203.19 140.21 203.11 140.21 235.75L137.27 237.91L137.27 240L150.65 240L150.65 237.91L147.71 235.75L147.71 195.22L150.34 193.29L150.34 191.20L139.74 191.20C137.04 191.20 136.11 191.51 135.57 194.22L129.69 230.80L129.54 230.80C128.14 217.19 126.75 208.29 124.28 194.60C123.50 191.51 122.34 191.20 119.02 191.20L108.89 191.20L108.89 193.29L111.52 195.22L111.52 235.82L108.73 237.76L108.73 240L119.48 240L119.48 237.76L116.70 235.82ZM176.63 226.93L178.88 236.52L176.48 238.14L176.48 240L189.08 240L189.08 237.76L186.61 236.13L175.47 190.97L167.97 190.97C164.41 205.20 160.55 222.06 157.14 236.37L154.67 237.76L154.67 240L164.41 240L164.41 237.76L161.86 236.44L164.10 226.93ZM170.37 199.86L175.63 222.75L165.03 222.75C166.81 214.71 168.82 205.90 170.29 199.86ZM207.80 195.69C212.52 195.69 213.99 198.24 213.99 202.57C213.99 204.58 213.99 206.82 213.99 208.91C213.99 213.24 212.28 215.79 207.72 215.79L203.47 215.79C203.47 208.29 203.47 203.19 203.47 195.69ZM213.29 233.66C214.68 237.37 215.15 240.54 219.63 240.46C221.18 240.46 223.34 240.23 224.81 239.54L224.81 236.67C222.65 237.06 221.49 234.51 220.79 232.65C219.71 229.64 218.63 226.70 217.54 223.68C216.77 221.59 215.92 220.28 213.83 219.12C218.24 218.19 221.56 214.87 221.56 208.91C221.56 206.82 221.56 204.58 221.56 202.57C221.56 193.99 215.30 191.20 207.80 191.20L193.65 191.20L193.65 193.29L196.12 195.22C196.12 208.60 196.12 222.29 196.12 235.75L193.18 237.91L193.18 240C197.20 240 202.39 240 206.48 240L206.48 237.91L203.55 235.75C203.55 231.34 203.55 224.30 203.55 220.05C207.57 220.05 208.49 221.05 209.89 224.69ZM252.50 195.76L254.97 203.58L258.45 203.58L258.14 191.20C248.63 191.20 239.12 191.20 229.53 191.20L229.30 203.58L232.78 203.58L235.10 195.76L240.05 195.76C240.05 208.99 240.05 222.14 240.05 235.28L237.11 237.53L237.11 240C241.13 240 246.54 240 250.57 240L250.57 237.53L247.70 235.28C247.70 222.14 247.70 208.99 247.70 195.76Z"
              fill="#5a4ade"></path>
    </g>
    <g id="SvgjsG3049" rel="mainfill" name="slogan_text"
       transform="translate(52.30501401424408,-53.96742706298829)" fill="#5a4ade">
        <path d="M2.20 233.29L5.29 233.29L9.21 239.54L10.89 240.10L11.07 239.54L9.63 239.06L5.83 232.99L9.63 226.92L11.07 226.44L10.89 225.88L9.21 226.44L5.29 232.69L2.20 232.69L2.20 225.98L1.60 225.98L1.60 240L2.20 240ZM15.12 243.36L16.14 242.34L20.59 229.47L20.03 229.27L16.52 239.40L16.10 239.40L12.04 229.27L11.48 229.49L15.70 240L16.32 240L15.62 242.06L14.92 242.76L13.06 242.76L13.06 243.36ZM24.43 229.93L28.76 229.93L29.82 230.99L29.82 238.34L28.76 239.40L23.97 239.40L22.89 238.32L22.89 231.47ZM24.19 229.33L22.75 230.79L22.35 229.25L21.79 229.39L22.29 231.37L22.29 243.36L22.89 243.36L22.89 239.16L23.73 240L29.00 240L30.42 238.58L30.42 230.75L29.00 229.33ZM39.21 239.40L34.49 239.40L33.42 238.32L33.42 231.01L34.49 229.93L39.29 229.93L40.35 231.01L40.35 232.87L40.95 232.87L40.95 230.77L39.53 229.33L34.25 229.33L32.82 230.77L32.82 238.56L34.25 240L39.27 240L40.89 239.48L40.71 238.92ZM50.99 238.54L50.99 230.79L49.55 229.33L44.20 229.33L42.76 230.79L42.76 238.54L44.20 240L49.55 240ZM44.44 239.40L43.36 238.32L43.36 231.01L44.44 229.93L49.31 229.93L50.39 231.01L50.39 238.32L49.31 239.40ZM61.18 230.43L60.08 229.33L53.39 229.33L53.39 240L60.10 240L61.52 238.58L61.52 235.57L60.38 234.45L61.18 233.65ZM60.58 230.67L60.58 233.39L59.84 234.13L53.99 234.13L53.99 229.93L59.84 229.93ZM60.92 235.83L60.92 238.32L59.84 239.40L53.99 239.40L53.99 234.73L59.80 234.73ZM71.58 237.96L71.58 230.77L70.11 229.33L65.51 229.33L63.89 229.87L64.07 230.43L65.55 229.93L69.87 229.93L70.97 231.01L70.97 234.17L64.99 234.17L63.52 235.61L63.52 238.56L64.99 240L69.67 240L71.11 238.54L71.52 240.08L72.08 239.94ZM69.43 239.40L65.23 239.40L64.13 238.32L64.13 235.85L65.23 234.77L70.97 234.77L70.97 237.86ZM81.45 235.43L81.45 240L82.05 240L82.05 229.33L75.34 229.33L73.92 230.73L73.92 234.03L75.34 235.43L77.34 235.43L74.74 239.02L73.68 239.58L73.96 240.10L75.16 239.46L78.08 235.43ZM75.60 234.83L74.52 233.77L74.52 230.99L75.60 229.93L81.45 229.93L81.45 234.83ZM92.90 229.93L97.23 229.93L98.29 230.99L98.29 238.34L97.23 239.40L92.44 239.40L91.36 238.32L91.36 231.47ZM92.66 229.33L91.22 230.79L90.82 229.25L90.26 229.39L90.76 231.37L90.76 243.36L91.36 243.36L91.36 239.16L92.20 240L97.47 240L98.89 238.58L98.89 230.75L97.47 229.33ZM109.15 237.96L109.15 230.77L107.68 229.33L103.08 229.33L101.46 229.87L101.64 230.43L103.12 229.93L107.44 229.93L108.54 231.01L108.54 234.17L102.56 234.17L101.09 235.61L101.09 238.56L102.56 240L107.24 240L108.68 238.54L109.09 240.08L109.65 239.94ZM107.00 239.40L102.80 239.40L101.70 238.32L101.70 235.85L102.80 234.77L108.54 234.77L108.54 237.86ZM112.45 231.31L112.45 228.66L114.29 226.82L118.96 226.10L120.48 224.58L120.06 224.16L118.66 225.56L113.99 226.28L111.85 228.42L111.85 238.56L113.29 240L118.74 240L120.18 238.56L120.18 231.59L118.74 230.15L113.61 230.15ZM112.45 232.15L113.85 230.75L118.50 230.75L119.58 231.83L119.58 238.32L118.50 239.40L113.53 239.40L112.45 238.32ZM130.91 238.54L130.91 230.79L129.47 229.33L124.13 229.33L122.68 230.79L122.68 238.54L124.13 240L129.47 240ZM124.37 239.40L123.28 238.32L123.28 231.01L124.37 229.93L129.23 229.93L130.31 231.01L130.31 238.32L129.23 239.40ZM132.12 229.33L132.12 229.93L135.98 229.93L135.98 240L136.58 240L136.58 229.93L140.45 229.93L140.45 229.33ZM149.50 237.96L149.50 230.77L148.04 229.33L143.43 229.33L141.81 229.87L141.99 230.43L143.47 229.93L147.80 229.93L148.90 231.01L148.90 234.17L142.91 234.17L141.45 235.61L141.45 238.56L142.91 240L147.60 240L149.04 238.54L149.44 240.08L150.00 239.94ZM147.36 239.40L143.15 239.40L142.05 238.32L142.05 235.85L143.15 234.77L148.90 234.77L148.90 237.86Z"
              fill="#5a4ade">

        </path>
    </g>
    <g id="SvgjsG3050" rel="mainfill" name="symbol"
       transform="translate(73.04506139755247,-6.349199819564827) scale(1.1)" fill="#5a4ade">
        <g fill="#5a4ade">
            <path d="M89.698,83.12c-3.814,0-6.909,3.072-6.909,6.873c0,2.752,3.095,2.752,6.909,2.752c3.817,0,6.91,0,6.91-2.752   C96.608,86.192,93.516,83.12,89.698,83.12z M77.76,87.053L63.992,76.776v-2.69c0-1.017-0.826-1.839-1.847-1.839   c-1.023,0-1.85,0.822-1.85,1.839v3.611c0,0.58,0.274,1.124,0.74,1.471l13.296,9.925H25.778l13.293-9.925   c0.465-0.347,0.74-0.891,0.74-1.471v-3.611c0-1.017-0.826-1.839-1.85-1.839c-1.021,0-1.847,0.822-1.847,1.839v2.69L22.35,87.053   c-0.467,0.35-0.74,0.895-0.74,1.474v2.407c0,1.017,0.828,1.839,1.85,1.839h53.193c1.021,0,1.849-0.822,1.849-1.839v-2.407   C78.501,87.947,78.228,87.402,77.76,87.053z M89.64,12.592H10.467c-1.023,0-1.848,0.824-1.848,1.839v41.716   c0,1.018,0.824,1.84,1.848,1.84H89.64c1.023,0,1.849-0.822,1.849-1.84V14.431C91.488,13.416,90.663,12.592,89.64,12.592z    M87.793,54.309H12.314V16.271h75.479V54.309z M91.164,5.772H8.943c-4.352,0-7.889,3.523-7.889,7.853v49.341   c0,4.331,3.537,7.854,7.889,7.854h82.221c4.352,0,7.891-3.522,7.891-7.854V13.625C99.055,9.296,95.516,5.772,91.164,5.772z    M95.359,62.967c0,2.301-1.884,4.174-4.195,4.174H8.943c-2.311,0-4.192-1.873-4.192-4.174V13.625c0-2.301,1.882-4.175,4.192-4.175   h82.221c2.312,0,4.195,1.874,4.195,4.175V62.967z M50.817,61.555H49.29c-0.933,0-1.692,0.792-1.692,1.768s0.76,1.768,1.692,1.768   h1.527c0.933,0,1.691-0.792,1.691-1.768S51.75,61.555,50.817,61.555z"
                  fill="#5a4ade">

            </path>
        </g>
    </g>
</svg>
